<svg width="433" height="353" viewBox="0 0 433 353" fill="none" xmlns="http://www.w3.org/2000/svg">
<g filter="url(#filter0_dd_6579_19335)">
<rect x="23" width="387" height="308.623" rx="22.1143" fill="white"/>
<rect x="181.117" y="26.5371" width="70.7657" height="70.7657" rx="35.3829" fill="#C1E3D5"/>
<rect x="181.117" y="26.5371" width="70.7657" height="70.7657" rx="35.3829" stroke="#EBF6F1" stroke-width="5.30743"/>
<circle cx="216.502" cy="61.9205" r="28.3063" fill="#37A477"/>
<path d="M243.479 83.1484L244.315 85.4082L246.575 86.2444L244.315 87.0806L243.479 89.3404L242.643 87.0806L240.383 86.2444L242.643 85.4082L243.479 83.1484Z" fill="#37A477"/>
<path d="M165.637 53.96L166.473 56.2198L168.733 57.056L166.473 57.8922L165.637 60.152L164.801 57.8922L162.541 57.056L164.801 56.2198L165.637 53.96Z" fill="#F59E0B"/>
<path d="M211.635 16.8057L212.471 19.0655L214.731 19.9017L212.471 20.7379L211.635 22.9977L210.799 20.7379L208.539 19.9017L210.799 19.0655L211.635 16.8057Z" fill="#6F8DE9"/>
<path d="M189.777 96.2117C191.107 96.2117 192.999 95.8856 194.261 96.3363C196.266 97.0523 196.672 99.5158 197.555 101.194C198.285 102.581 198.673 102.967 200.129 102.702C201.385 102.474 202.699 101.692 203.976 101.692" stroke="#F59E0B" stroke-width="1.32686" stroke-linecap="round"/>
<path d="M251.805 39.9157C251.805 38.8841 253.116 37.8047 253.604 36.9264C253.999 36.215 254.681 35.6585 255.043 34.9336" stroke="#F59E0B" stroke-width="1.32686" stroke-linecap="round"/>
<path d="M249.811 42.1582C249.811 42.7542 249.842 43.4037 250.558 43.4037" stroke="#F59E0B" stroke-width="1.32686" stroke-linecap="round"/>
<path d="M176.269 73.7154C175.752 73.4021 174.88 74.3287 174.613 74.6665C174.242 75.136 175.118 75.9702 175.475 76.3332C175.913 76.7777 177.257 78.1851 177.776 77.5289C178.208 76.9826 177.97 76.4876 177.229 76.7455C176.445 77.0186 175.609 77.7534 175.099 78.3972C174.629 78.9918 174.927 79.5797 175.353 80.1856C176.074 81.2084 176.582 81.5345 177.895 81.415C178.735 81.3386 179.412 80.9229 181.433 81.5961" stroke="#37A477" stroke-width="1.32686" stroke-linecap="round"/>
<path d="M228.545 24.9534C229.146 23.6759 230.664 22.6973 231.324 24.3807C231.635 25.1746 231.884 25.939 232.172 26.7408C232.28 27.0401 232.318 27.3246 232.436 27.6055C232.538 27.8486 232.735 27.9402 232.833 28.1498C232.954 28.4105 234.184 28.9755 234.491 28.9748C235.015 28.9737 235.49 28.6546 235.985 28.6155C237.364 28.5065 237.323 30.5007 238.525 31.0666" stroke="#37A477" stroke-width="1.32686" stroke-linecap="round"/>
<path d="M259.278 70.5537V70.5537C257.137 70.5537 255.734 73.6404 256.81 75.492C256.846 75.5535 256.884 75.6056 256.925 75.6465C257 75.7211 257.183 75.7844 257.428 75.8328C259.252 76.1919 262.146 73.4183 260.287 73.4183V73.4183C258.678 73.4183 254.897 76.3906 255.846 78.5251C255.88 78.6028 255.922 78.674 255.97 78.7394C257.186 80.4008 260.065 79.9234 262.018 79.2724V79.2724" stroke="#6F8DE9" stroke-width="1.32686" stroke-linecap="round"/>
<path d="M176.078 32.9404C176.078 34.1863 176.682 36.8546 177.822 37.4243" stroke="#37A477" stroke-width="1.32686" stroke-linecap="round"/>
<path d="M179.314 41.4102C179.314 42.7277 180.311 42.6174 180.311 41.4102" stroke="#F59E0B" stroke-width="1.32686" stroke-linecap="round"/>
<path d="M216.059 97.3027L216.895 99.5625L219.155 100.399L216.895 101.235L216.059 103.495L215.223 101.235L212.963 100.399L215.223 99.5625L216.059 97.3027Z" fill="#6F8DE9"/>
<path d="M231.126 53.9883C230.977 53.628 230.69 53.3418 230.33 53.1922C230.153 53.1166 229.963 53.0765 229.77 53.0742H222.399C222.008 53.0742 221.633 53.2295 221.356 53.506C221.08 53.7825 220.924 54.1575 220.924 54.5485C220.924 54.9395 221.08 55.3145 221.356 55.591C221.633 55.8675 222.008 56.0228 222.399 56.0228H226.217L217.976 64.264L213.125 59.3989C212.988 59.2607 212.825 59.151 212.646 59.0762C212.466 59.0013 212.273 58.9628 212.079 58.9628C211.884 58.9628 211.691 59.0013 211.512 59.0762C211.332 59.151 211.169 59.2607 211.032 59.3989L202.186 68.2446C202.048 68.3817 201.938 68.5447 201.863 68.7244C201.789 68.904 201.75 69.0967 201.75 69.2914C201.75 69.486 201.789 69.6787 201.863 69.8583C201.938 70.038 202.048 70.201 202.186 70.3381C202.323 70.4763 202.486 70.586 202.666 70.6608C202.846 70.7357 203.038 70.7742 203.233 70.7742C203.427 70.7742 203.62 70.7357 203.8 70.6608C203.979 70.586 204.143 70.4763 204.28 70.3381L212.079 62.5244L216.929 67.3895C217.066 67.5277 217.229 67.6374 217.409 67.7122C217.588 67.7871 217.781 67.8256 217.976 67.8256C218.17 67.8256 218.363 67.7871 218.543 67.7122C218.722 67.6374 218.885 67.5277 219.022 67.3895L228.296 58.1015V61.9199C228.296 62.3109 228.451 62.6859 228.728 62.9624C229.004 63.2389 229.379 63.3942 229.77 63.3942C230.161 63.3942 230.536 63.2389 230.812 62.9624C231.089 62.6859 231.244 62.3109 231.244 61.9199V54.5485C231.242 54.3558 231.202 54.1655 231.126 53.9883Z" fill="white"/>
<path d="M139.921 139.417V125.485H144.638C145.739 125.485 146.642 125.671 147.345 126.042C148.048 126.414 148.566 126.911 148.897 127.535C149.242 128.145 149.415 128.842 149.415 129.625C149.415 130.368 149.242 131.058 148.897 131.695C148.566 132.318 148.042 132.823 147.325 133.207C146.609 133.579 145.693 133.765 144.578 133.765H141.911V139.417H139.921ZM147.245 139.417L144.24 133.227H146.449L149.554 139.417H147.245ZM141.911 132.252H144.519C145.501 132.252 146.217 132.013 146.668 131.535C147.133 131.045 147.365 130.421 147.365 129.665C147.365 128.895 147.139 128.285 146.688 127.834C146.237 127.382 145.507 127.157 144.499 127.157H141.911V132.252ZM155.648 139.656C154.68 139.656 153.824 139.444 153.081 139.019C152.338 138.581 151.754 137.977 151.329 137.208C150.918 136.425 150.712 135.516 150.712 134.481C150.712 133.433 150.918 132.517 151.329 131.734C151.741 130.952 152.318 130.341 153.061 129.903C153.817 129.466 154.686 129.247 155.668 129.247C156.65 129.247 157.493 129.466 158.196 129.903C158.912 130.328 159.456 130.899 159.828 131.615C160.213 132.332 160.405 133.121 160.405 133.984C160.405 134.116 160.405 134.262 160.405 134.421C160.405 134.567 160.398 134.733 160.385 134.919H152.165V133.506H158.435C158.395 132.696 158.116 132.06 157.599 131.595C157.081 131.131 156.431 130.899 155.648 130.899C155.118 130.899 154.62 131.018 154.156 131.257C153.704 131.496 153.34 131.847 153.061 132.312C152.796 132.776 152.663 133.36 152.663 134.063V134.64C152.663 135.37 152.796 135.987 153.061 136.491C153.34 136.982 153.704 137.36 154.156 137.626C154.607 137.878 155.098 138.004 155.628 138.004C156.265 138.004 156.789 137.865 157.201 137.586C157.625 137.294 157.937 136.909 158.136 136.432H160.126C159.954 137.042 159.662 137.593 159.251 138.084C158.839 138.561 158.329 138.946 157.718 139.238C157.121 139.517 156.431 139.656 155.648 139.656ZM166.298 139.656C165.476 139.656 164.739 139.517 164.089 139.238C163.452 138.959 162.941 138.568 162.557 138.064C162.185 137.559 161.96 136.976 161.88 136.312H163.89C163.97 136.617 164.109 136.903 164.308 137.168C164.507 137.433 164.772 137.646 165.104 137.805C165.436 137.964 165.834 138.044 166.298 138.044C166.736 138.044 167.094 137.984 167.373 137.865C167.652 137.732 167.857 137.559 167.99 137.347C168.136 137.135 168.209 136.903 168.209 136.65C168.209 136.292 168.116 136.02 167.93 135.834C167.745 135.649 167.473 135.503 167.114 135.397C166.769 135.277 166.351 135.164 165.86 135.058C165.436 134.979 165.011 134.873 164.587 134.74C164.162 134.594 163.777 134.421 163.432 134.222C163.087 134.01 162.809 133.745 162.596 133.426C162.384 133.108 162.278 132.716 162.278 132.252C162.278 131.668 162.431 131.151 162.736 130.7C163.041 130.248 163.472 129.897 164.029 129.645C164.587 129.379 165.25 129.247 166.02 129.247C167.121 129.247 168.01 129.512 168.687 130.043C169.377 130.56 169.775 131.303 169.881 132.272H167.97C167.904 131.834 167.698 131.489 167.353 131.237C167.021 130.985 166.577 130.859 166.02 130.859C165.449 130.859 165.011 130.972 164.706 131.197C164.414 131.423 164.268 131.721 164.268 132.093C164.268 132.332 164.355 132.544 164.527 132.73C164.699 132.902 164.958 133.048 165.303 133.167C165.648 133.287 166.053 133.4 166.517 133.506C167.194 133.652 167.804 133.824 168.348 134.023C168.906 134.209 169.357 134.494 169.702 134.879C170.047 135.251 170.219 135.795 170.219 136.511C170.232 137.135 170.073 137.685 169.742 138.163C169.423 138.628 168.972 138.992 168.388 139.258C167.804 139.523 167.108 139.656 166.298 139.656ZM176.922 139.656C175.953 139.656 175.097 139.444 174.354 139.019C173.611 138.581 173.027 137.977 172.603 137.208C172.192 136.425 171.986 135.516 171.986 134.481C171.986 133.433 172.192 132.517 172.603 131.734C173.014 130.952 173.591 130.341 174.334 129.903C175.091 129.466 175.96 129.247 176.942 129.247C177.924 129.247 178.766 129.466 179.469 129.903C180.186 130.328 180.73 130.899 181.101 131.615C181.486 132.332 181.679 133.121 181.679 133.984C181.679 134.116 181.679 134.262 181.679 134.421C181.679 134.567 181.672 134.733 181.659 134.919H173.439V133.506H179.708C179.668 132.696 179.39 132.06 178.872 131.595C178.355 131.131 177.705 130.899 176.922 130.899C176.391 130.899 175.894 131.018 175.429 131.257C174.978 131.496 174.613 131.847 174.334 132.312C174.069 132.776 173.936 133.36 173.936 134.063V134.64C173.936 135.37 174.069 135.987 174.334 136.491C174.613 136.982 174.978 137.36 175.429 137.626C175.88 137.878 176.371 138.004 176.902 138.004C177.539 138.004 178.063 137.865 178.474 137.586C178.899 137.294 179.211 136.909 179.41 136.432H181.4C181.227 137.042 180.936 137.593 180.524 138.084C180.113 138.561 179.602 138.946 178.992 139.238C178.395 139.517 177.705 139.656 176.922 139.656ZM187.519 139.417C186.882 139.417 186.331 139.317 185.867 139.118C185.402 138.919 185.044 138.588 184.792 138.123C184.54 137.659 184.414 137.029 184.414 136.233V131.157H182.702V129.485H184.414L184.673 126.998H186.404V129.485H189.23V131.157H186.404V136.252C186.404 136.823 186.524 137.214 186.762 137.427C187.001 137.626 187.413 137.725 187.996 137.725H189.131V139.417H187.519ZM200.739 139.656C199.717 139.656 198.821 139.477 198.052 139.118C197.296 138.747 196.705 138.229 196.28 137.566C195.856 136.903 195.637 136.126 195.624 135.237H197.713C197.727 135.742 197.846 136.206 198.072 136.631C198.311 137.042 198.649 137.374 199.087 137.626C199.538 137.865 200.089 137.984 200.739 137.984C201.296 137.984 201.774 137.891 202.172 137.705C202.583 137.52 202.895 137.267 203.107 136.949C203.319 136.617 203.426 136.239 203.426 135.815C203.426 135.31 203.313 134.906 203.087 134.601C202.862 134.282 202.556 134.023 202.172 133.824C201.787 133.612 201.342 133.426 200.838 133.267C200.347 133.108 199.83 132.935 199.286 132.75C198.198 132.378 197.388 131.914 196.858 131.356C196.327 130.786 196.062 130.043 196.062 129.127C196.062 128.344 196.241 127.668 196.599 127.097C196.97 126.513 197.495 126.062 198.171 125.744C198.848 125.412 199.637 125.246 200.54 125.246C201.442 125.246 202.231 125.412 202.908 125.744C203.585 126.075 204.116 126.533 204.5 127.117C204.885 127.701 205.084 128.384 205.097 129.167H202.988C202.974 128.809 202.875 128.457 202.689 128.112C202.503 127.767 202.225 127.489 201.853 127.276C201.482 127.051 201.024 126.938 200.48 126.938C200.029 126.925 199.624 126.998 199.266 127.157C198.908 127.316 198.629 127.548 198.43 127.853C198.231 128.159 198.131 128.523 198.131 128.948C198.131 129.373 198.218 129.718 198.39 129.983C198.576 130.235 198.841 130.454 199.186 130.64C199.531 130.826 199.929 130.998 200.38 131.157C200.845 131.303 201.356 131.469 201.913 131.655C202.603 131.88 203.213 132.159 203.744 132.491C204.288 132.809 204.719 133.227 205.038 133.745C205.356 134.249 205.515 134.899 205.515 135.695C205.515 136.385 205.33 137.029 204.958 137.626C204.6 138.223 204.069 138.714 203.366 139.099C202.676 139.47 201.8 139.656 200.739 139.656ZM211.206 139.656C210.424 139.656 209.74 139.497 209.156 139.178C208.586 138.86 208.148 138.375 207.843 137.725C207.538 137.075 207.385 136.259 207.385 135.277V129.485H209.375V135.078C209.375 136.034 209.574 136.757 209.972 137.248C210.37 137.725 210.961 137.964 211.744 137.964C212.274 137.964 212.752 137.838 213.177 137.586C213.601 137.321 213.933 136.949 214.172 136.471C214.411 135.98 214.53 135.39 214.53 134.7V129.485H216.52V139.417H214.729L214.61 137.685C214.291 138.296 213.834 138.78 213.236 139.138C212.653 139.483 211.976 139.656 211.206 139.656ZM223.664 139.656C222.696 139.656 221.833 139.437 221.077 138.999C220.321 138.561 219.724 137.951 219.286 137.168C218.861 136.385 218.649 135.483 218.649 134.461C218.649 133.426 218.861 132.517 219.286 131.734C219.724 130.952 220.321 130.341 221.077 129.903C221.833 129.466 222.696 129.247 223.664 129.247C224.885 129.247 225.9 129.565 226.709 130.202C227.532 130.826 228.056 131.675 228.282 132.75H226.212C226.079 132.179 225.774 131.741 225.296 131.436C224.832 131.117 224.281 130.958 223.644 130.958C223.114 130.958 222.623 131.091 222.172 131.356C221.72 131.622 221.356 132.013 221.077 132.531C220.812 133.048 220.679 133.685 220.679 134.441C220.679 135.012 220.758 135.516 220.918 135.954C221.077 136.392 221.289 136.763 221.555 137.068C221.833 137.36 222.152 137.586 222.51 137.745C222.868 137.891 223.246 137.964 223.644 137.964C224.082 137.964 224.474 137.898 224.819 137.765C225.164 137.619 225.456 137.413 225.694 137.148C225.946 136.869 226.119 136.538 226.212 136.153H228.282C228.056 137.201 227.532 138.05 226.709 138.7C225.887 139.337 224.872 139.656 223.664 139.656ZM235.049 139.656C234.081 139.656 233.218 139.437 232.462 138.999C231.706 138.561 231.109 137.951 230.671 137.168C230.246 136.385 230.034 135.483 230.034 134.461C230.034 133.426 230.246 132.517 230.671 131.734C231.109 130.952 231.706 130.341 232.462 129.903C233.218 129.466 234.081 129.247 235.049 129.247C236.27 129.247 237.285 129.565 238.094 130.202C238.917 130.826 239.441 131.675 239.667 132.75H237.597C237.464 132.179 237.159 131.741 236.681 131.436C236.217 131.117 235.666 130.958 235.029 130.958C234.499 130.958 234.008 131.091 233.557 131.356C233.106 131.622 232.741 132.013 232.462 132.531C232.197 133.048 232.064 133.685 232.064 134.441C232.064 135.012 232.144 135.516 232.303 135.954C232.462 136.392 232.674 136.763 232.94 137.068C233.218 137.36 233.537 137.586 233.895 137.745C234.253 137.891 234.631 137.964 235.029 137.964C235.467 137.964 235.859 137.898 236.204 137.765C236.549 137.619 236.841 137.413 237.079 137.148C237.332 136.869 237.504 136.538 237.597 136.153H239.667C239.441 137.201 238.917 138.05 238.094 138.7C237.272 139.337 236.257 139.656 235.049 139.656ZM246.355 139.656C245.386 139.656 244.53 139.444 243.787 139.019C243.044 138.581 242.46 137.977 242.036 137.208C241.625 136.425 241.419 135.516 241.419 134.481C241.419 133.433 241.625 132.517 242.036 131.734C242.447 130.952 243.024 130.341 243.767 129.903C244.524 129.466 245.393 129.247 246.375 129.247C247.357 129.247 248.199 129.466 248.902 129.903C249.619 130.328 250.163 130.899 250.534 131.615C250.919 132.332 251.112 133.121 251.112 133.984C251.112 134.116 251.112 134.262 251.112 134.421C251.112 134.567 251.105 134.733 251.092 134.919H242.872V133.506H249.141C249.101 132.696 248.823 132.06 248.305 131.595C247.788 131.131 247.138 130.899 246.355 130.899C245.824 130.899 245.326 131.018 244.862 131.257C244.411 131.496 244.046 131.847 243.767 132.312C243.502 132.776 243.369 133.36 243.369 134.063V134.64C243.369 135.37 243.502 135.987 243.767 136.491C244.046 136.982 244.411 137.36 244.862 137.626C245.313 137.878 245.804 138.004 246.335 138.004C246.972 138.004 247.496 137.865 247.907 137.586C248.332 137.294 248.644 136.909 248.843 136.432H250.833C250.66 137.042 250.369 137.593 249.957 138.084C249.546 138.561 249.035 138.946 248.425 139.238C247.828 139.517 247.138 139.656 246.355 139.656ZM257.005 139.656C256.182 139.656 255.446 139.517 254.796 139.238C254.159 138.959 253.648 138.568 253.263 138.064C252.892 137.559 252.666 136.976 252.586 136.312H254.597C254.676 136.617 254.816 136.903 255.015 137.168C255.214 137.433 255.479 137.646 255.811 137.805C256.142 137.964 256.54 138.044 257.005 138.044C257.443 138.044 257.801 137.984 258.08 137.865C258.358 137.732 258.564 137.559 258.697 137.347C258.843 137.135 258.916 136.903 258.916 136.65C258.916 136.292 258.823 136.02 258.637 135.834C258.451 135.649 258.179 135.503 257.821 135.397C257.476 135.277 257.058 135.164 256.567 135.058C256.142 134.979 255.718 134.873 255.293 134.74C254.869 134.594 254.484 134.421 254.139 134.222C253.794 134.01 253.515 133.745 253.303 133.426C253.091 133.108 252.984 132.716 252.984 132.252C252.984 131.668 253.137 131.151 253.442 130.7C253.747 130.248 254.179 129.897 254.736 129.645C255.293 129.379 255.957 129.247 256.726 129.247C257.828 129.247 258.716 129.512 259.393 130.043C260.083 130.56 260.481 131.303 260.587 132.272H258.677C258.61 131.834 258.405 131.489 258.06 131.237C257.728 130.985 257.283 130.859 256.726 130.859C256.156 130.859 255.718 130.972 255.413 131.197C255.121 131.423 254.975 131.721 254.975 132.093C254.975 132.332 255.061 132.544 255.233 132.73C255.406 132.902 255.665 133.048 256.01 133.167C256.355 133.287 256.759 133.4 257.224 133.506C257.9 133.652 258.511 133.824 259.055 134.023C259.612 134.209 260.063 134.494 260.408 134.879C260.753 135.251 260.926 135.795 260.926 136.511C260.939 137.135 260.78 137.685 260.448 138.163C260.13 138.628 259.678 138.992 259.095 139.258C258.511 139.523 257.814 139.656 257.005 139.656ZM266.952 139.656C266.129 139.656 265.393 139.517 264.742 139.238C264.106 138.959 263.595 138.568 263.21 138.064C262.838 137.559 262.613 136.976 262.533 136.312H264.543C264.623 136.617 264.762 136.903 264.961 137.168C265.16 137.433 265.426 137.646 265.757 137.805C266.089 137.964 266.487 138.044 266.952 138.044C267.389 138.044 267.748 137.984 268.026 137.865C268.305 137.732 268.511 137.559 268.643 137.347C268.789 137.135 268.862 136.903 268.862 136.65C268.862 136.292 268.769 136.02 268.584 135.834C268.398 135.649 268.126 135.503 267.768 135.397C267.423 135.277 267.005 135.164 266.514 135.058C266.089 134.979 265.665 134.873 265.24 134.74C264.815 134.594 264.431 134.421 264.086 134.222C263.741 134.01 263.462 133.745 263.25 133.426C263.037 133.108 262.931 132.716 262.931 132.252C262.931 131.668 263.084 131.151 263.389 130.7C263.694 130.248 264.125 129.897 264.683 129.645C265.24 129.379 265.903 129.247 266.673 129.247C267.774 129.247 268.663 129.512 269.34 130.043C270.03 130.56 270.428 131.303 270.534 132.272H268.623C268.557 131.834 268.351 131.489 268.006 131.237C267.675 130.985 267.23 130.859 266.673 130.859C266.102 130.859 265.665 130.972 265.359 131.197C265.067 131.423 264.922 131.721 264.922 132.093C264.922 132.332 265.008 132.544 265.18 132.73C265.353 132.902 265.611 133.048 265.956 133.167C266.301 133.287 266.706 133.4 267.171 133.506C267.847 133.652 268.458 133.824 269.002 134.023C269.559 134.209 270.01 134.494 270.355 134.879C270.7 135.251 270.872 135.795 270.872 136.511C270.886 137.135 270.727 137.685 270.395 138.163C270.076 138.628 269.625 138.992 269.041 139.258C268.458 139.523 267.761 139.656 266.952 139.656ZM273.535 139.417V128.033C273.535 127.343 273.648 126.779 273.873 126.341C274.112 125.903 274.457 125.585 274.908 125.385C275.359 125.186 275.903 125.087 276.54 125.087H277.635V126.779H276.859C276.381 126.779 276.036 126.878 275.824 127.077C275.625 127.263 275.525 127.595 275.525 128.072V139.417H273.535ZM272.082 131.157V129.485H277.874V131.157H272.082ZM283.341 139.656C282.558 139.656 281.875 139.497 281.291 139.178C280.72 138.86 280.283 138.375 279.977 137.725C279.672 137.075 279.52 136.259 279.52 135.277V129.485H281.51V135.078C281.51 136.034 281.709 136.757 282.107 137.248C282.505 137.725 283.096 137.964 283.878 137.964C284.409 137.964 284.887 137.838 285.311 137.586C285.736 137.321 286.068 136.949 286.307 136.471C286.545 135.98 286.665 135.39 286.665 134.7V129.485H288.655V139.417H286.864L286.744 137.685C286.426 138.296 285.968 138.78 285.371 139.138C284.787 139.483 284.111 139.656 283.341 139.656ZM291.162 139.417V125.087H293.152V139.417H291.162Z" fill="#111827"/>
<path d="M72.2898 172.263V167.557L68.2562 159.879H69.9368L73.2805 166.637H72.8029L76.1288 159.879H77.7918L73.7759 167.557V172.263H72.2898ZM81.8288 172.475C81.0032 172.475 80.2602 172.286 79.5997 171.909C78.9392 171.52 78.4144 170.977 78.0251 170.281C77.6477 169.585 77.459 168.772 77.459 167.84C77.459 166.896 77.6536 166.077 78.0428 165.381C78.432 164.685 78.9569 164.148 79.6174 163.771C80.2896 163.382 81.0386 163.187 81.8642 163.187C82.7016 163.187 83.4505 163.382 84.111 163.771C84.7715 164.148 85.2904 164.685 85.6678 165.381C86.0453 166.077 86.234 166.896 86.234 167.84C86.234 168.772 86.0394 169.585 85.6501 170.281C85.2727 170.977 84.7479 171.52 84.0756 171.909C83.4151 172.286 82.6662 172.475 81.8288 172.475ZM81.8288 171.201C82.3477 171.201 82.8254 171.077 83.2618 170.83C83.6982 170.582 84.0461 170.205 84.3056 169.697C84.5769 169.19 84.7125 168.571 84.7125 167.84C84.7125 167.085 84.5828 166.46 84.3233 165.965C84.0638 165.469 83.7159 165.098 83.2795 164.85C82.8431 164.591 82.3713 164.461 81.8642 164.461C81.3688 164.461 80.8971 164.591 80.4489 164.85C80.0125 165.098 79.6587 165.469 79.3874 165.965C79.1161 166.46 78.9805 167.085 78.9805 167.84C78.9805 168.571 79.1161 169.19 79.3874 169.697C79.6587 170.205 80.0066 170.582 80.4312 170.83C80.8676 171.077 81.3334 171.201 81.8288 171.201ZM91.5551 172.475C90.871 172.475 90.2695 172.339 89.7506 172.068C89.2434 171.785 88.8483 171.36 88.5652 170.794C88.294 170.228 88.1583 169.515 88.1583 168.654V163.399H89.6444V168.494C89.6444 169.403 89.8331 170.081 90.2105 170.529C90.5997 170.977 91.16 171.201 91.8912 171.201C92.3866 171.201 92.8289 171.083 93.2181 170.847C93.6191 170.6 93.9316 170.246 94.1557 169.786C94.3916 169.314 94.5095 168.748 94.5095 168.088V163.399H95.9956V172.263H94.6511L94.5626 170.706C94.2914 171.26 93.8903 171.697 93.3596 172.015C92.8289 172.322 92.2274 172.475 91.5551 172.475ZM98.459 172.263V163.399H99.8036L99.9274 165.098C100.116 164.697 100.364 164.355 100.67 164.072C100.989 163.789 101.366 163.57 101.803 163.417C102.239 163.264 102.734 163.187 103.289 163.187V164.744H102.811C102.422 164.744 102.05 164.797 101.697 164.903C101.355 164.997 101.048 165.157 100.777 165.381C100.517 165.605 100.311 165.911 100.157 166.301C100.016 166.678 99.9451 167.156 99.9451 167.734V172.263H98.459ZM109.654 176.155V163.399H110.999L111.14 164.85C111.329 164.567 111.571 164.302 111.866 164.054C112.161 163.794 112.514 163.588 112.927 163.435C113.34 163.27 113.818 163.187 114.36 163.187C115.221 163.187 115.97 163.393 116.607 163.806C117.256 164.207 117.763 164.756 118.129 165.451C118.494 166.147 118.677 166.949 118.677 167.858C118.677 168.742 118.494 169.532 118.129 170.228C117.763 170.924 117.256 171.472 116.607 171.873C115.958 172.274 115.204 172.475 114.343 172.475C113.623 172.475 112.986 172.328 112.432 172.033C111.878 171.738 111.447 171.325 111.14 170.794V176.155H109.654ZM114.183 171.184C114.761 171.184 115.274 171.048 115.723 170.777C116.171 170.494 116.519 170.104 116.766 169.609C117.026 169.102 117.156 168.512 117.156 167.84C117.156 167.168 117.026 166.584 116.766 166.088C116.519 165.581 116.171 165.186 115.723 164.903C115.274 164.62 114.761 164.478 114.183 164.478C113.594 164.478 113.069 164.62 112.609 164.903C112.161 165.186 111.807 165.581 111.547 166.088C111.3 166.584 111.176 167.168 111.176 167.84C111.176 168.512 111.3 169.102 111.547 169.609C111.807 170.104 112.161 170.494 112.609 170.777C113.069 171.048 113.594 171.184 114.183 171.184ZM123.665 172.475C122.934 172.475 122.327 172.351 121.843 172.103C121.371 171.856 121.017 171.526 120.781 171.113C120.546 170.688 120.428 170.228 120.428 169.733C120.428 169.131 120.581 168.624 120.888 168.211C121.206 167.799 121.648 167.486 122.214 167.274C122.792 167.05 123.465 166.938 124.231 166.938H126.602C126.602 166.383 126.513 165.923 126.337 165.558C126.171 165.192 125.924 164.915 125.594 164.726C125.263 164.537 124.862 164.443 124.391 164.443C123.824 164.443 123.329 164.591 122.904 164.885C122.492 165.168 122.238 165.581 122.144 166.124H120.622C120.693 165.487 120.905 164.956 121.259 164.532C121.625 164.095 122.085 163.765 122.639 163.541C123.193 163.305 123.777 163.187 124.391 163.187C125.204 163.187 125.882 163.34 126.425 163.647C126.979 163.942 127.392 164.361 127.663 164.903C127.946 165.434 128.088 166.059 128.088 166.778V172.263H126.761L126.673 170.688C126.555 170.936 126.401 171.172 126.213 171.396C126.036 171.608 125.824 171.797 125.576 171.962C125.34 172.115 125.063 172.239 124.744 172.333C124.426 172.428 124.066 172.475 123.665 172.475ZM123.895 171.219C124.32 171.219 124.697 171.136 125.027 170.971C125.358 170.794 125.641 170.558 125.877 170.264C126.124 169.969 126.307 169.638 126.425 169.273C126.543 168.895 126.602 168.512 126.602 168.123V168.088H124.355C123.789 168.088 123.329 168.158 122.975 168.3C122.621 168.43 122.368 168.612 122.214 168.848C122.061 169.084 121.984 169.355 121.984 169.662C121.984 169.981 122.055 170.258 122.197 170.494C122.35 170.729 122.568 170.912 122.851 171.042C123.134 171.16 123.482 171.219 123.895 171.219ZM133.713 172.475C132.994 172.475 132.357 172.357 131.803 172.121C131.26 171.873 130.824 171.526 130.493 171.077C130.163 170.629 129.957 170.104 129.874 169.503H131.396C131.467 169.821 131.596 170.11 131.785 170.37C131.974 170.629 132.233 170.836 132.563 170.989C132.894 171.142 133.283 171.219 133.731 171.219C134.156 171.219 134.498 171.16 134.757 171.042C135.028 170.912 135.229 170.747 135.359 170.547C135.5 170.334 135.571 170.104 135.571 169.857C135.571 169.491 135.482 169.214 135.306 169.025C135.14 168.836 134.893 168.689 134.563 168.583C134.232 168.477 133.837 168.382 133.377 168.3C133 168.229 132.622 168.135 132.245 168.017C131.879 167.887 131.543 167.734 131.237 167.557C130.942 167.368 130.706 167.132 130.529 166.849C130.352 166.554 130.264 166.206 130.264 165.805C130.264 165.298 130.393 164.85 130.653 164.461C130.924 164.06 131.296 163.747 131.767 163.523C132.251 163.299 132.823 163.187 133.483 163.187C134.427 163.187 135.194 163.417 135.783 163.877C136.373 164.337 136.721 165.003 136.827 165.876H135.359C135.3 165.428 135.105 165.08 134.775 164.832C134.456 164.573 134.02 164.443 133.466 164.443C132.911 164.443 132.487 164.555 132.192 164.779C131.909 165.003 131.767 165.298 131.767 165.664C131.767 165.9 131.85 166.106 132.015 166.283C132.18 166.46 132.416 166.613 132.723 166.743C133.041 166.861 133.424 166.967 133.873 167.061C134.45 167.168 134.981 167.309 135.465 167.486C135.948 167.651 136.338 167.911 136.632 168.264C136.939 168.606 137.092 169.096 137.092 169.733C137.104 170.275 136.969 170.753 136.685 171.166C136.402 171.579 136.007 171.903 135.5 172.139C135.005 172.363 134.409 172.475 133.713 172.475ZM142.576 172.475C141.857 172.475 141.22 172.357 140.666 172.121C140.123 171.873 139.687 171.526 139.356 171.077C139.026 170.629 138.82 170.104 138.737 169.503H140.259C140.33 169.821 140.459 170.11 140.648 170.37C140.837 170.629 141.096 170.836 141.426 170.989C141.757 171.142 142.146 171.219 142.594 171.219C143.019 171.219 143.361 171.16 143.62 171.042C143.891 170.912 144.092 170.747 144.222 170.547C144.363 170.334 144.434 170.104 144.434 169.857C144.434 169.491 144.345 169.214 144.169 169.025C144.003 168.836 143.756 168.689 143.426 168.583C143.095 168.477 142.7 168.382 142.24 168.3C141.863 168.229 141.485 168.135 141.108 168.017C140.742 167.887 140.406 167.734 140.1 167.557C139.805 167.368 139.569 167.132 139.392 166.849C139.215 166.554 139.126 166.206 139.126 165.805C139.126 165.298 139.256 164.85 139.516 164.461C139.787 164.06 140.158 163.747 140.63 163.523C141.114 163.299 141.686 163.187 142.346 163.187C143.29 163.187 144.057 163.417 144.646 163.877C145.236 164.337 145.584 165.003 145.69 165.876H144.222C144.163 165.428 143.968 165.08 143.638 164.832C143.319 164.573 142.883 164.443 142.329 164.443C141.774 164.443 141.35 164.555 141.055 164.779C140.772 165.003 140.63 165.298 140.63 165.664C140.63 165.9 140.713 166.106 140.878 166.283C141.043 166.46 141.279 166.613 141.586 166.743C141.904 166.861 142.287 166.967 142.736 167.061C143.313 167.168 143.844 167.309 144.328 167.486C144.811 167.651 145.201 167.911 145.495 168.264C145.802 168.606 145.955 169.096 145.955 169.733C145.967 170.275 145.832 170.753 145.548 171.166C145.265 171.579 144.87 171.903 144.363 172.139C143.868 172.363 143.272 172.475 142.576 172.475ZM149.554 172.263L146.954 163.399H148.44L150.474 170.936L150.156 170.918L152.403 163.399H154.083L156.33 170.918L155.994 170.936L158.028 163.399H159.532L156.949 172.263H155.428L153.075 164.39H153.411L151.076 172.263H149.554ZM164.844 172.475C164.018 172.475 163.275 172.286 162.615 171.909C161.954 171.52 161.429 170.977 161.04 170.281C160.663 169.585 160.474 168.772 160.474 167.84C160.474 166.896 160.669 166.077 161.058 165.381C161.447 164.685 161.972 164.148 162.632 163.771C163.305 163.382 164.054 163.187 164.879 163.187C165.717 163.187 166.465 163.382 167.126 163.771C167.786 164.148 168.305 164.685 168.683 165.381C169.06 166.077 169.249 166.896 169.249 167.84C169.249 168.772 169.054 169.585 168.665 170.281C168.288 170.977 167.763 171.52 167.091 171.909C166.43 172.286 165.681 172.475 164.844 172.475ZM164.844 171.201C165.363 171.201 165.84 171.077 166.277 170.83C166.713 170.582 167.061 170.205 167.321 169.697C167.592 169.19 167.727 168.571 167.727 167.84C167.727 167.085 167.598 166.46 167.338 165.965C167.079 165.469 166.731 165.098 166.294 164.85C165.858 164.591 165.386 164.461 164.879 164.461C164.384 164.461 163.912 164.591 163.464 164.85C163.027 165.098 162.674 165.469 162.402 165.965C162.131 166.46 161.995 167.085 161.995 167.84C161.995 168.571 162.131 169.19 162.402 169.697C162.674 170.205 163.022 170.582 163.446 170.83C163.883 171.077 164.348 171.201 164.844 171.201ZM171.333 172.263V163.399H172.677L172.801 165.098C172.99 164.697 173.237 164.355 173.544 164.072C173.862 163.789 174.24 163.57 174.676 163.417C175.113 163.264 175.608 163.187 176.162 163.187V164.744H175.685C175.295 164.744 174.924 164.797 174.57 164.903C174.228 164.997 173.921 165.157 173.65 165.381C173.391 165.605 173.184 165.911 173.031 166.301C172.889 166.678 172.819 167.156 172.819 167.734V172.263H171.333ZM181.463 172.475C180.602 172.475 179.841 172.274 179.181 171.873C178.532 171.461 178.025 170.906 177.66 170.21C177.306 169.503 177.129 168.707 177.129 167.822C177.129 166.926 177.306 166.13 177.66 165.434C178.025 164.738 178.538 164.19 179.199 163.789C179.859 163.387 180.62 163.187 181.481 163.187C182.2 163.187 182.837 163.334 183.392 163.629C183.946 163.924 184.37 164.337 184.665 164.868V159.525H186.151V172.263H184.807L184.683 170.812C184.494 171.095 184.253 171.366 183.958 171.626C183.663 171.873 183.309 172.08 182.896 172.245C182.483 172.398 182.006 172.475 181.463 172.475ZM181.622 171.184C182.212 171.184 182.731 171.048 183.179 170.777C183.639 170.494 183.993 170.104 184.241 169.609C184.488 169.102 184.612 168.512 184.612 167.84C184.612 167.168 184.488 166.584 184.241 166.088C183.993 165.581 183.639 165.186 183.179 164.903C182.731 164.62 182.212 164.478 181.622 164.478C181.056 164.478 180.543 164.62 180.083 164.903C179.635 165.186 179.281 165.581 179.022 166.088C178.774 166.584 178.65 167.168 178.65 167.84C178.65 168.512 178.774 169.102 179.022 169.609C179.281 170.104 179.635 170.494 180.083 170.777C180.543 171.048 181.056 171.184 181.622 171.184ZM193.309 172.263V163.399H194.653L194.777 165.098C194.966 164.697 195.213 164.355 195.52 164.072C195.838 163.789 196.216 163.57 196.652 163.417C197.089 163.264 197.584 163.187 198.138 163.187V164.744H197.661C197.271 164.744 196.9 164.797 196.546 164.903C196.204 164.997 195.897 165.157 195.626 165.381C195.367 165.605 195.16 165.911 195.007 166.301C194.865 166.678 194.795 167.156 194.795 167.734V172.263H193.309ZM203.422 172.475C202.584 172.475 201.841 172.286 201.192 171.909C200.544 171.52 200.031 170.977 199.653 170.281C199.288 169.574 199.105 168.76 199.105 167.84C199.105 166.896 199.288 166.082 199.653 165.398C200.019 164.703 200.526 164.16 201.175 163.771C201.835 163.382 202.596 163.187 203.457 163.187C204.318 163.187 205.055 163.382 205.668 163.771C206.282 164.16 206.748 164.667 207.066 165.292C207.396 165.917 207.561 166.601 207.561 167.344C207.561 167.462 207.561 167.592 207.561 167.734C207.561 167.863 207.555 168.011 207.544 168.176H200.219V167.026H206.093C206.058 166.212 205.786 165.581 205.279 165.133C204.784 164.673 204.165 164.443 203.422 164.443C202.914 164.443 202.443 164.561 202.006 164.797C201.57 165.021 201.216 165.351 200.945 165.788C200.685 166.224 200.556 166.772 200.556 167.433V167.928C200.556 168.648 200.691 169.255 200.962 169.751C201.234 170.246 201.588 170.617 202.024 170.865C202.46 171.101 202.926 171.219 203.422 171.219C204.035 171.219 204.542 171.083 204.943 170.812C205.356 170.529 205.657 170.146 205.845 169.662H207.314C207.16 170.205 206.907 170.688 206.553 171.113C206.199 171.526 205.757 171.856 205.226 172.103C204.707 172.351 204.106 172.475 203.422 172.475ZM212.91 172.475C212.191 172.475 211.554 172.357 210.999 172.121C210.457 171.873 210.021 171.526 209.69 171.077C209.36 170.629 209.154 170.104 209.071 169.503H210.593C210.663 169.821 210.793 170.11 210.982 170.37C211.17 170.629 211.43 170.836 211.76 170.989C212.09 171.142 212.48 171.219 212.928 171.219C213.352 171.219 213.694 171.16 213.954 171.042C214.225 170.912 214.426 170.747 214.555 170.547C214.697 170.334 214.768 170.104 214.768 169.857C214.768 169.491 214.679 169.214 214.502 169.025C214.337 168.836 214.09 168.689 213.759 168.583C213.429 168.477 213.034 168.382 212.574 168.3C212.197 168.229 211.819 168.135 211.442 168.017C211.076 167.887 210.74 167.734 210.433 167.557C210.138 167.368 209.903 167.132 209.726 166.849C209.549 166.554 209.46 166.206 209.46 165.805C209.46 165.298 209.59 164.85 209.85 164.461C210.121 164.06 210.492 163.747 210.964 163.523C211.448 163.299 212.02 163.187 212.68 163.187C213.624 163.187 214.39 163.417 214.98 163.877C215.57 164.337 215.918 165.003 216.024 165.876H214.555C214.496 165.428 214.302 165.08 213.972 164.832C213.653 164.573 213.217 164.443 212.662 164.443C212.108 164.443 211.684 164.555 211.389 164.779C211.106 165.003 210.964 165.298 210.964 165.664C210.964 165.9 211.047 166.106 211.212 166.283C211.377 166.46 211.613 166.613 211.919 166.743C212.238 166.861 212.621 166.967 213.069 167.061C213.647 167.168 214.178 167.309 214.662 167.486C215.145 167.651 215.534 167.911 215.829 168.264C216.136 168.606 216.289 169.096 216.289 169.733C216.301 170.275 216.165 170.753 215.882 171.166C215.599 171.579 215.204 171.903 214.697 172.139C214.202 172.363 213.606 172.475 212.91 172.475ZM222.357 172.475C221.52 172.475 220.777 172.286 220.128 171.909C219.479 171.52 218.966 170.977 218.589 170.281C218.223 169.574 218.04 168.76 218.04 167.84C218.04 166.896 218.223 166.082 218.589 165.398C218.954 164.703 219.461 164.16 220.11 163.771C220.771 163.382 221.531 163.187 222.392 163.187C223.253 163.187 223.99 163.382 224.604 163.771C225.217 164.16 225.683 164.667 226.001 165.292C226.332 165.917 226.497 166.601 226.497 167.344C226.497 167.462 226.497 167.592 226.497 167.734C226.497 167.863 226.491 168.011 226.479 168.176H219.155V167.026H225.028C224.993 166.212 224.722 165.581 224.215 165.133C223.719 164.673 223.1 164.443 222.357 164.443C221.85 164.443 221.378 164.561 220.942 164.797C220.505 165.021 220.151 165.351 219.88 165.788C219.621 166.224 219.491 166.772 219.491 167.433V167.928C219.491 168.648 219.627 169.255 219.898 169.751C220.169 170.246 220.523 170.617 220.959 170.865C221.396 171.101 221.862 171.219 222.357 171.219C222.97 171.219 223.477 171.083 223.878 170.812C224.291 170.529 224.592 170.146 224.781 169.662H226.249C226.096 170.205 225.842 170.688 225.488 171.113C225.134 171.526 224.692 171.856 224.161 172.103C223.643 172.351 223.041 172.475 222.357 172.475ZM231.693 172.263C231.163 172.263 230.703 172.18 230.313 172.015C229.924 171.85 229.623 171.573 229.411 171.184C229.211 170.783 229.11 170.246 229.11 169.574V164.655H227.571V163.399H229.11L229.305 161.259H230.596V163.399H233.179V164.655H230.596V169.574C230.596 170.128 230.708 170.505 230.933 170.706C231.157 170.895 231.552 170.989 232.118 170.989H233.056V172.263H231.693ZM241.588 172.263L238.987 163.399H240.473L242.508 170.936L242.189 170.918L244.436 163.399H246.117L248.363 170.918L248.027 170.936L250.062 163.399H251.566L248.983 172.263H247.461L245.108 164.39H245.444L243.109 172.263H241.588ZM255.815 172.475C255.084 172.475 254.477 172.351 253.993 172.103C253.521 171.856 253.167 171.526 252.932 171.113C252.696 170.688 252.578 170.228 252.578 169.733C252.578 169.131 252.731 168.624 253.038 168.211C253.356 167.799 253.798 167.486 254.365 167.274C254.943 167.05 255.615 166.938 256.381 166.938H258.752C258.752 166.383 258.664 165.923 258.487 165.558C258.322 165.192 258.074 164.915 257.744 164.726C257.413 164.537 257.012 164.443 256.541 164.443C255.975 164.443 255.479 164.591 255.055 164.885C254.642 165.168 254.388 165.581 254.294 166.124H252.772C252.843 165.487 253.055 164.956 253.409 164.532C253.775 164.095 254.235 163.765 254.789 163.541C255.344 163.305 255.927 163.187 256.541 163.187C257.354 163.187 258.033 163.34 258.575 163.647C259.129 163.942 259.542 164.361 259.814 164.903C260.097 165.434 260.238 166.059 260.238 166.778V172.263H258.911L258.823 170.688C258.705 170.936 258.552 171.172 258.363 171.396C258.186 171.608 257.974 171.797 257.726 171.962C257.49 172.115 257.213 172.239 256.894 172.333C256.576 172.428 256.216 172.475 255.815 172.475ZM256.045 171.219C256.47 171.219 256.847 171.136 257.178 170.971C257.508 170.794 257.791 170.558 258.027 170.264C258.274 169.969 258.457 169.638 258.575 169.273C258.693 168.895 258.752 168.512 258.752 168.123V168.088H256.505C255.939 168.088 255.479 168.158 255.125 168.3C254.772 168.43 254.518 168.612 254.365 168.848C254.211 169.084 254.135 169.355 254.135 169.662C254.135 169.981 254.205 170.258 254.347 170.494C254.5 170.729 254.718 170.912 255.001 171.042C255.285 171.16 255.632 171.219 256.045 171.219ZM265.863 172.475C265.144 172.475 264.507 172.357 263.953 172.121C263.41 171.873 262.974 171.526 262.644 171.077C262.313 170.629 262.107 170.104 262.024 169.503H263.546C263.617 169.821 263.746 170.11 263.935 170.37C264.124 170.629 264.383 170.836 264.714 170.989C265.044 171.142 265.433 171.219 265.881 171.219C266.306 171.219 266.648 171.16 266.907 171.042C267.179 170.912 267.379 170.747 267.509 170.547C267.65 170.334 267.721 170.104 267.721 169.857C267.721 169.491 267.633 169.214 267.456 169.025C267.291 168.836 267.043 168.689 266.713 168.583C266.382 168.477 265.987 168.382 265.527 168.3C265.15 168.229 264.773 168.135 264.395 168.017C264.029 167.887 263.693 167.734 263.387 167.557C263.092 167.368 262.856 167.132 262.679 166.849C262.502 166.554 262.414 166.206 262.414 165.805C262.414 165.298 262.543 164.85 262.803 164.461C263.074 164.06 263.446 163.747 263.917 163.523C264.401 163.299 264.973 163.187 265.633 163.187C266.577 163.187 267.344 163.417 267.933 163.877C268.523 164.337 268.871 165.003 268.977 165.876H267.509C267.45 165.428 267.255 165.08 266.925 164.832C266.607 164.573 266.17 164.443 265.616 164.443C265.061 164.443 264.637 164.555 264.342 164.779C264.059 165.003 263.917 165.298 263.917 165.664C263.917 165.9 264 166.106 264.165 166.283C264.33 166.46 264.566 166.613 264.873 166.743C265.191 166.861 265.575 166.967 266.023 167.061C266.601 167.168 267.131 167.309 267.615 167.486C268.099 167.651 268.488 167.911 268.783 168.264C269.089 168.606 269.243 169.096 269.243 169.733C269.254 170.275 269.119 170.753 268.836 171.166C268.553 171.579 268.157 171.903 267.65 172.139C267.155 172.363 266.559 172.475 265.863 172.475ZM279.426 172.475C278.706 172.475 278.069 172.357 277.515 172.121C276.973 171.873 276.536 171.526 276.206 171.077C275.876 170.629 275.669 170.104 275.587 169.503H277.108C277.179 169.821 277.309 170.11 277.497 170.37C277.686 170.629 277.946 170.836 278.276 170.989C278.606 171.142 278.995 171.219 279.443 171.219C279.868 171.219 280.21 171.16 280.47 171.042C280.741 170.912 280.941 170.747 281.071 170.547C281.213 170.334 281.283 170.104 281.283 169.857C281.283 169.491 281.195 169.214 281.018 169.025C280.853 168.836 280.605 168.689 280.275 168.583C279.945 168.477 279.55 168.382 279.09 168.3C278.712 168.229 278.335 168.135 277.957 168.017C277.592 167.887 277.256 167.734 276.949 167.557C276.654 167.368 276.418 167.132 276.241 166.849C276.064 166.554 275.976 166.206 275.976 165.805C275.976 165.298 276.106 164.85 276.365 164.461C276.636 164.06 277.008 163.747 277.48 163.523C277.963 163.299 278.535 163.187 279.196 163.187C280.139 163.187 280.906 163.417 281.496 163.877C282.085 164.337 282.433 165.003 282.539 165.876H281.071C281.012 165.428 280.817 165.08 280.487 164.832C280.169 164.573 279.732 164.443 279.178 164.443C278.624 164.443 278.199 164.555 277.904 164.779C277.621 165.003 277.48 165.298 277.48 165.664C277.48 165.9 277.562 166.106 277.727 166.283C277.892 166.46 278.128 166.613 278.435 166.743C278.753 166.861 279.137 166.967 279.585 167.061C280.163 167.168 280.694 167.309 281.177 167.486C281.661 167.651 282.05 167.911 282.345 168.264C282.651 168.606 282.805 169.096 282.805 169.733C282.817 170.275 282.681 170.753 282.398 171.166C282.115 171.579 281.72 171.903 281.213 172.139C280.717 172.363 280.122 172.475 279.426 172.475ZM288.165 172.475C287.481 172.475 286.879 172.339 286.36 172.068C285.853 171.785 285.458 171.36 285.175 170.794C284.904 170.228 284.768 169.515 284.768 168.654V163.399H286.254V168.494C286.254 169.403 286.443 170.081 286.82 170.529C287.21 170.977 287.77 171.201 288.501 171.201C288.996 171.201 289.439 171.083 289.828 170.847C290.229 170.6 290.541 170.246 290.766 169.786C291.001 169.314 291.119 168.748 291.119 168.088V163.399H292.605V172.263H291.261L291.172 170.706C290.901 171.26 290.5 171.697 289.969 172.015C289.439 172.322 288.837 172.475 288.165 172.475ZM299.102 172.475C298.265 172.475 297.51 172.28 296.838 171.891C296.178 171.502 295.653 170.959 295.263 170.264C294.886 169.568 294.697 168.76 294.697 167.84C294.697 166.908 294.886 166.094 295.263 165.398C295.653 164.703 296.178 164.16 296.838 163.771C297.51 163.382 298.265 163.187 299.102 163.187C300.164 163.187 301.043 163.464 301.739 164.018C302.446 164.561 302.9 165.292 303.101 166.212H301.579C301.45 165.658 301.155 165.227 300.695 164.921C300.235 164.614 299.698 164.461 299.085 164.461C298.589 164.461 298.124 164.591 297.687 164.85C297.251 165.098 296.897 165.475 296.626 165.982C296.354 166.478 296.219 167.097 296.219 167.84C296.219 168.382 296.295 168.866 296.449 169.291C296.614 169.715 296.826 170.075 297.086 170.37C297.357 170.653 297.664 170.865 298.006 171.007C298.359 171.148 298.719 171.219 299.085 171.219C299.498 171.219 299.875 171.154 300.217 171.024C300.559 170.883 300.848 170.682 301.084 170.423C301.332 170.152 301.497 169.833 301.579 169.467H303.101C302.912 170.364 302.458 171.089 301.739 171.643C301.031 172.198 300.152 172.475 299.102 172.475ZM309.209 172.475C308.372 172.475 307.617 172.28 306.945 171.891C306.284 171.502 305.76 170.959 305.37 170.264C304.993 169.568 304.804 168.76 304.804 167.84C304.804 166.908 304.993 166.094 305.37 165.398C305.76 164.703 306.284 164.16 306.945 163.771C307.617 163.382 308.372 163.187 309.209 163.187C310.271 163.187 311.15 163.464 311.845 164.018C312.553 164.561 313.007 165.292 313.208 166.212H311.686C311.556 165.658 311.262 165.227 310.802 164.921C310.342 164.614 309.805 164.461 309.192 164.461C308.696 164.461 308.23 164.591 307.794 164.85C307.358 165.098 307.004 165.475 306.733 165.982C306.461 166.478 306.326 167.097 306.326 167.84C306.326 168.382 306.402 168.866 306.556 169.291C306.721 169.715 306.933 170.075 307.193 170.37C307.464 170.653 307.771 170.865 308.113 171.007C308.466 171.148 308.826 171.219 309.192 171.219C309.605 171.219 309.982 171.154 310.324 171.024C310.666 170.883 310.955 170.682 311.191 170.423C311.439 170.152 311.604 169.833 311.686 169.467H313.208C313.019 170.364 312.565 171.089 311.845 171.643C311.138 172.198 310.259 172.475 309.209 172.475ZM319.228 172.475C318.39 172.475 317.647 172.286 316.999 171.909C316.35 171.52 315.837 170.977 315.46 170.281C315.094 169.574 314.911 168.76 314.911 167.84C314.911 166.896 315.094 166.082 315.46 165.398C315.825 164.703 316.332 164.16 316.981 163.771C317.642 163.382 318.402 163.187 319.263 163.187C320.124 163.187 320.861 163.382 321.475 163.771C322.088 164.16 322.554 164.667 322.872 165.292C323.203 165.917 323.368 166.601 323.368 167.344C323.368 167.462 323.368 167.592 323.368 167.734C323.368 167.863 323.362 168.011 323.35 168.176H316.026V167.026H321.899C321.864 166.212 321.593 165.581 321.085 165.133C320.59 164.673 319.971 164.443 319.228 164.443C318.721 164.443 318.249 164.561 317.813 164.797C317.376 165.021 317.022 165.351 316.751 165.788C316.492 166.224 316.362 166.772 316.362 167.433V167.928C316.362 168.648 316.498 169.255 316.769 169.751C317.04 170.246 317.394 170.617 317.83 170.865C318.267 171.101 318.733 171.219 319.228 171.219C319.841 171.219 320.348 171.083 320.749 170.812C321.162 170.529 321.463 170.146 321.652 169.662H323.12C322.967 170.205 322.713 170.688 322.359 171.113C322.005 171.526 321.563 171.856 321.032 172.103C320.513 172.351 319.912 172.475 319.228 172.475ZM328.716 172.475C327.997 172.475 327.36 172.357 326.806 172.121C326.263 171.873 325.827 171.526 325.497 171.077C325.166 170.629 324.96 170.104 324.877 169.503H326.399C326.47 169.821 326.599 170.11 326.788 170.37C326.977 170.629 327.236 170.836 327.566 170.989C327.897 171.142 328.286 171.219 328.734 171.219C329.159 171.219 329.501 171.16 329.76 171.042C330.031 170.912 330.232 170.747 330.362 170.547C330.503 170.334 330.574 170.104 330.574 169.857C330.574 169.491 330.486 169.214 330.309 169.025C330.144 168.836 329.896 168.689 329.566 168.583C329.235 168.477 328.84 168.382 328.38 168.3C328.003 168.229 327.625 168.135 327.248 168.017C326.882 167.887 326.546 167.734 326.24 167.557C325.945 167.368 325.709 167.132 325.532 166.849C325.355 166.554 325.267 166.206 325.267 165.805C325.267 165.298 325.396 164.85 325.656 164.461C325.927 164.06 326.299 163.747 326.77 163.523C327.254 163.299 327.826 163.187 328.486 163.187C329.43 163.187 330.197 163.417 330.786 163.877C331.376 164.337 331.724 165.003 331.83 165.876H330.362C330.303 165.428 330.108 165.08 329.778 164.832C329.459 164.573 329.023 164.443 328.469 164.443C327.914 164.443 327.49 164.555 327.195 164.779C326.912 165.003 326.77 165.298 326.77 165.664C326.77 165.9 326.853 166.106 327.018 166.283C327.183 166.46 327.419 166.613 327.726 166.743C328.044 166.861 328.427 166.967 328.876 167.061C329.454 167.168 329.984 167.309 330.468 167.486C330.951 167.651 331.341 167.911 331.636 168.264C331.942 168.606 332.095 169.096 332.095 169.733C332.107 170.275 331.972 170.753 331.689 171.166C331.406 171.579 331.01 171.903 330.503 172.139C330.008 172.363 329.412 172.475 328.716 172.475ZM337.579 172.475C336.86 172.475 336.223 172.357 335.669 172.121C335.126 171.873 334.69 171.526 334.36 171.077C334.029 170.629 333.823 170.104 333.74 169.503H335.262C335.333 169.821 335.462 170.11 335.651 170.37C335.84 170.629 336.099 170.836 336.429 170.989C336.76 171.142 337.149 171.219 337.597 171.219C338.022 171.219 338.364 171.16 338.623 171.042C338.894 170.912 339.095 170.747 339.225 170.547C339.366 170.334 339.437 170.104 339.437 169.857C339.437 169.491 339.349 169.214 339.172 169.025C339.007 168.836 338.759 168.689 338.429 168.583C338.098 168.477 337.703 168.382 337.243 168.3C336.866 168.229 336.488 168.135 336.111 168.017C335.745 167.887 335.409 167.734 335.103 167.557C334.808 167.368 334.572 167.132 334.395 166.849C334.218 166.554 334.13 166.206 334.13 165.805C334.13 165.298 334.259 164.85 334.519 164.461C334.79 164.06 335.162 163.747 335.633 163.523C336.117 163.299 336.689 163.187 337.349 163.187C338.293 163.187 339.06 163.417 339.649 163.877C340.239 164.337 340.587 165.003 340.693 165.876H339.225C339.166 165.428 338.971 165.08 338.641 164.832C338.322 164.573 337.886 164.443 337.332 164.443C336.777 164.443 336.353 164.555 336.058 164.779C335.775 165.003 335.633 165.298 335.633 165.664C335.633 165.9 335.716 166.106 335.881 166.283C336.046 166.46 336.282 166.613 336.589 166.743C336.907 166.861 337.29 166.967 337.739 167.061C338.317 167.168 338.847 167.309 339.331 167.486C339.814 167.651 340.204 167.911 340.498 168.264C340.805 168.606 340.958 169.096 340.958 169.733C340.97 170.275 340.835 170.753 340.552 171.166C340.268 171.579 339.873 171.903 339.366 172.139C338.871 172.363 338.275 172.475 337.579 172.475ZM343.576 172.263V161.966C343.576 161.4 343.671 160.94 343.859 160.586C344.048 160.221 344.325 159.955 344.691 159.79C345.068 159.613 345.528 159.525 346.071 159.525H347.044V160.799H346.301C345.865 160.799 345.546 160.887 345.346 161.064C345.157 161.241 345.063 161.553 345.063 162.002V172.263H343.576ZM342.232 164.655V163.399H347.274V164.655H342.232ZM352.279 172.475C351.595 172.475 350.993 172.339 350.475 172.068C349.967 171.785 349.572 171.36 349.289 170.794C349.018 170.228 348.882 169.515 348.882 168.654V163.399H350.368V168.494C350.368 169.403 350.557 170.081 350.934 170.529C351.324 170.977 351.884 171.201 352.615 171.201C353.111 171.201 353.553 171.083 353.942 170.847C354.343 170.6 354.656 170.246 354.88 169.786C355.116 169.314 355.234 168.748 355.234 168.088V163.399H356.72V172.263H355.375L355.287 170.706C355.015 171.26 354.614 171.697 354.084 172.015C353.553 172.322 352.951 172.475 352.279 172.475ZM359.183 172.263V159.525H360.669V172.263H359.183ZM361.955 174.439L362.981 170.529H364.52L362.981 174.439H361.955ZM121.316 194.475C120.101 194.475 119.051 194.21 118.167 193.679C117.294 193.136 116.616 192.387 116.132 191.432C115.66 190.465 115.424 189.344 115.424 188.071C115.424 186.797 115.66 185.682 116.132 184.727C116.616 183.76 117.294 183.011 118.167 182.48C119.051 181.938 120.101 181.666 121.316 181.666C122.731 181.666 123.881 182.003 124.765 182.675C125.65 183.347 126.216 184.297 126.464 185.523H124.818C124.63 184.757 124.246 184.143 123.669 183.683C123.091 183.211 122.306 182.976 121.316 182.976C120.431 182.976 119.658 183.182 118.998 183.595C118.349 183.996 117.842 184.58 117.477 185.346C117.123 186.101 116.946 187.009 116.946 188.071C116.946 189.132 117.123 190.046 117.477 190.813C117.842 191.568 118.349 192.152 118.998 192.564C119.658 192.965 120.431 193.166 121.316 193.166C122.306 193.166 123.091 192.942 123.669 192.494C124.246 192.034 124.63 191.426 124.818 190.671H126.464C126.216 191.863 125.65 192.794 124.765 193.467C123.881 194.139 122.731 194.475 121.316 194.475ZM128.512 194.263V181.525H129.998V194.263H128.512ZM132.61 194.263V185.399H134.096V194.263H132.61ZM133.353 183.489C133.058 183.489 132.811 183.394 132.61 183.206C132.422 183.005 132.327 182.757 132.327 182.463C132.327 182.168 132.422 181.932 132.61 181.755C132.811 181.566 133.058 181.472 133.353 181.472C133.636 181.472 133.878 181.566 134.079 181.755C134.279 181.932 134.379 182.168 134.379 182.463C134.379 182.757 134.279 183.005 134.079 183.206C133.878 183.394 133.636 183.489 133.353 183.489ZM140.718 194.475C139.88 194.475 139.125 194.28 138.453 193.891C137.793 193.502 137.268 192.959 136.879 192.264C136.501 191.568 136.312 190.76 136.312 189.84C136.312 188.908 136.501 188.094 136.879 187.398C137.268 186.703 137.793 186.16 138.453 185.771C139.125 185.382 139.88 185.187 140.718 185.187C141.779 185.187 142.658 185.464 143.354 186.018C144.061 186.561 144.515 187.292 144.716 188.212H143.194C143.065 187.658 142.77 187.227 142.31 186.921C141.85 186.614 141.313 186.461 140.7 186.461C140.204 186.461 139.739 186.591 139.302 186.85C138.866 187.098 138.512 187.475 138.241 187.982C137.969 188.478 137.834 189.097 137.834 189.84C137.834 190.382 137.911 190.866 138.064 191.291C138.229 191.715 138.441 192.075 138.701 192.37C138.972 192.653 139.279 192.865 139.621 193.007C139.975 193.148 140.334 193.219 140.7 193.219C141.113 193.219 141.49 193.154 141.832 193.024C142.174 192.883 142.463 192.682 142.699 192.423C142.947 192.152 143.112 191.833 143.194 191.467H144.716C144.527 192.364 144.073 193.089 143.354 193.643C142.646 194.198 141.767 194.475 140.718 194.475ZM152.293 194.263L148.029 189.398L151.904 185.399H153.726L149.285 189.928L149.303 188.867L154.186 194.263H152.293ZM146.791 194.263V181.525H148.277V194.263H146.791ZM164.403 194.475C163.578 194.475 162.835 194.286 162.174 193.909C161.514 193.52 160.989 192.977 160.6 192.281C160.222 191.585 160.033 190.772 160.033 189.84C160.033 188.896 160.228 188.077 160.617 187.381C161.006 186.685 161.531 186.148 162.192 185.771C162.864 185.382 163.613 185.187 164.439 185.187C165.276 185.187 166.025 185.382 166.685 185.771C167.346 186.148 167.865 186.685 168.242 187.381C168.62 188.077 168.808 188.896 168.808 189.84C168.808 190.772 168.614 191.585 168.225 192.281C167.847 192.977 167.322 193.52 166.65 193.909C165.99 194.286 165.241 194.475 164.403 194.475ZM164.403 193.201C164.922 193.201 165.4 193.077 165.836 192.83C166.273 192.582 166.621 192.205 166.88 191.697C167.151 191.19 167.287 190.571 167.287 189.84C167.287 189.085 167.157 188.46 166.898 187.965C166.638 187.469 166.29 187.098 165.854 186.85C165.418 186.591 164.946 186.461 164.439 186.461C163.943 186.461 163.471 186.591 163.023 186.85C162.587 187.098 162.233 187.469 161.962 187.965C161.691 188.46 161.555 189.085 161.555 189.84C161.555 190.571 161.691 191.19 161.962 191.697C162.233 192.205 162.581 192.582 163.006 192.83C163.442 193.077 163.908 193.201 164.403 193.201ZM170.892 194.263V185.399H172.236L172.325 186.956C172.608 186.414 173.015 185.983 173.546 185.665C174.076 185.346 174.678 185.187 175.35 185.187C176.034 185.187 176.63 185.329 177.137 185.612C177.644 185.883 178.039 186.302 178.322 186.868C178.605 187.434 178.747 188.147 178.747 189.008V194.263H177.261V189.168C177.261 188.271 177.066 187.599 176.677 187.151C176.288 186.691 175.733 186.461 175.014 186.461C174.507 186.461 174.053 186.585 173.652 186.832C173.263 187.068 172.95 187.416 172.714 187.876C172.49 188.336 172.378 188.902 172.378 189.574V194.263H170.892ZM185.733 198.155V185.399H187.077L187.219 186.85C187.407 186.567 187.649 186.302 187.944 186.054C188.239 185.794 188.593 185.588 189.006 185.435C189.418 185.27 189.896 185.187 190.439 185.187C191.3 185.187 192.049 185.393 192.685 185.806C193.334 186.207 193.841 186.756 194.207 187.451C194.573 188.147 194.755 188.949 194.755 189.858C194.755 190.742 194.573 191.532 194.207 192.228C193.841 192.924 193.334 193.472 192.685 193.873C192.037 194.274 191.282 194.475 190.421 194.475C189.701 194.475 189.065 194.328 188.51 194.033C187.956 193.738 187.525 193.325 187.219 192.794V198.155H185.733ZM190.262 193.184C190.84 193.184 191.353 193.048 191.801 192.777C192.249 192.494 192.597 192.104 192.845 191.609C193.104 191.102 193.234 190.512 193.234 189.84C193.234 189.168 193.104 188.584 192.845 188.088C192.597 187.581 192.249 187.186 191.801 186.903C191.353 186.62 190.84 186.478 190.262 186.478C189.672 186.478 189.147 186.62 188.687 186.903C188.239 187.186 187.885 187.581 187.626 188.088C187.378 188.584 187.254 189.168 187.254 189.84C187.254 190.512 187.378 191.102 187.626 191.609C187.885 192.104 188.239 192.494 188.687 192.777C189.147 193.048 189.672 193.184 190.262 193.184ZM196.824 194.263V185.399H198.169L198.293 187.098C198.482 186.697 198.729 186.355 199.036 186.072C199.354 185.789 199.732 185.57 200.168 185.417C200.604 185.264 201.1 185.187 201.654 185.187V186.744H201.176C200.787 186.744 200.416 186.797 200.062 186.903C199.72 186.997 199.413 187.157 199.142 187.381C198.883 187.605 198.676 187.911 198.523 188.301C198.381 188.678 198.31 189.156 198.31 189.734V194.263H196.824ZM206.99 194.475C206.165 194.475 205.422 194.286 204.761 193.909C204.101 193.52 203.576 192.977 203.187 192.281C202.809 191.585 202.621 190.772 202.621 189.84C202.621 188.896 202.815 188.077 203.205 187.381C203.594 186.685 204.119 186.148 204.779 185.771C205.451 185.382 206.2 185.187 207.026 185.187C207.863 185.187 208.612 185.382 209.273 185.771C209.933 186.148 210.452 186.685 210.83 187.381C211.207 188.077 211.396 188.896 211.396 189.84C211.396 190.772 211.201 191.585 210.812 192.281C210.434 192.977 209.91 193.52 209.237 193.909C208.577 194.286 207.828 194.475 206.99 194.475ZM206.99 193.201C207.509 193.201 207.987 193.077 208.423 192.83C208.86 192.582 209.208 192.205 209.467 191.697C209.739 191.19 209.874 190.571 209.874 189.84C209.874 189.085 209.744 188.46 209.485 187.965C209.226 187.469 208.878 187.098 208.441 186.85C208.005 186.591 207.533 186.461 207.026 186.461C206.531 186.461 206.059 186.591 205.611 186.85C205.174 187.098 204.82 187.469 204.549 187.965C204.278 188.46 204.142 189.085 204.142 189.84C204.142 190.571 204.278 191.19 204.549 191.697C204.82 192.205 205.168 192.582 205.593 192.83C206.029 193.077 206.495 193.201 206.99 193.201ZM217.513 194.475C216.675 194.475 215.921 194.28 215.248 193.891C214.588 193.502 214.063 192.959 213.674 192.264C213.296 191.568 213.108 190.76 213.108 189.84C213.108 188.908 213.296 188.094 213.674 187.398C214.063 186.703 214.588 186.16 215.248 185.771C215.921 185.382 216.675 185.187 217.513 185.187C218.574 185.187 219.453 185.464 220.149 186.018C220.857 186.561 221.311 187.292 221.511 188.212H219.99C219.86 187.658 219.565 187.227 219.105 186.921C218.645 186.614 218.108 186.461 217.495 186.461C217 186.461 216.534 186.591 216.098 186.85C215.661 187.098 215.307 187.475 215.036 187.982C214.765 188.478 214.629 189.097 214.629 189.84C214.629 190.382 214.706 190.866 214.859 191.291C215.024 191.715 215.237 192.075 215.496 192.37C215.767 192.653 216.074 192.865 216.416 193.007C216.77 193.148 217.13 193.219 217.495 193.219C217.908 193.219 218.285 193.154 218.627 193.024C218.969 192.883 219.258 192.682 219.494 192.423C219.742 192.152 219.907 191.833 219.99 191.467H221.511C221.322 192.364 220.868 193.089 220.149 193.643C219.441 194.198 218.563 194.475 217.513 194.475ZM227.531 194.475C226.694 194.475 225.951 194.286 225.302 193.909C224.654 193.52 224.14 192.977 223.763 192.281C223.397 191.574 223.215 190.76 223.215 189.84C223.215 188.896 223.397 188.082 223.763 187.398C224.129 186.703 224.636 186.16 225.285 185.771C225.945 185.382 226.706 185.187 227.567 185.187C228.428 185.187 229.165 185.382 229.778 185.771C230.391 186.16 230.857 186.667 231.176 187.292C231.506 187.917 231.671 188.601 231.671 189.344C231.671 189.462 231.671 189.592 231.671 189.734C231.671 189.863 231.665 190.011 231.653 190.176H224.329V189.026H230.203C230.167 188.212 229.896 187.581 229.389 187.133C228.894 186.673 228.274 186.443 227.531 186.443C227.024 186.443 226.552 186.561 226.116 186.797C225.68 187.021 225.326 187.351 225.055 187.788C224.795 188.224 224.665 188.772 224.665 189.433V189.928C224.665 190.648 224.801 191.255 225.072 191.751C225.343 192.246 225.697 192.617 226.134 192.865C226.57 193.101 227.036 193.219 227.531 193.219C228.145 193.219 228.652 193.083 229.053 192.812C229.466 192.529 229.766 192.146 229.955 191.662H231.423C231.27 192.205 231.017 192.688 230.663 193.113C230.309 193.526 229.867 193.856 229.336 194.103C228.817 194.351 228.215 194.475 227.531 194.475ZM237.604 194.475C236.766 194.475 236.023 194.286 235.375 193.909C234.726 193.52 234.213 192.977 233.835 192.281C233.47 191.574 233.287 190.76 233.287 189.84C233.287 188.896 233.47 188.082 233.835 187.398C234.201 186.703 234.708 186.16 235.357 185.771C236.017 185.382 236.778 185.187 237.639 185.187C238.5 185.187 239.237 185.382 239.851 185.771C240.464 186.16 240.93 186.667 241.248 187.292C241.578 187.917 241.743 188.601 241.743 189.344C241.743 189.462 241.743 189.592 241.743 189.734C241.743 189.863 241.738 190.011 241.726 190.176H234.402V189.026H240.275C240.24 188.212 239.968 187.581 239.461 187.133C238.966 186.673 238.347 186.443 237.604 186.443C237.097 186.443 236.625 186.561 236.188 186.797C235.752 187.021 235.398 187.351 235.127 187.788C234.867 188.224 234.738 188.772 234.738 189.433V189.928C234.738 190.648 234.873 191.255 235.145 191.751C235.416 192.246 235.77 192.617 236.206 192.865C236.642 193.101 237.108 193.219 237.604 193.219C238.217 193.219 238.724 193.083 239.125 192.812C239.538 192.529 239.839 192.146 240.027 191.662H241.496C241.342 192.205 241.089 192.688 240.735 193.113C240.381 193.526 239.939 193.856 239.408 194.103C238.889 194.351 238.288 194.475 237.604 194.475ZM247.694 194.475C246.833 194.475 246.072 194.274 245.412 193.873C244.763 193.461 244.256 192.906 243.89 192.21C243.536 191.503 243.359 190.707 243.359 189.822C243.359 188.926 243.536 188.13 243.89 187.434C244.256 186.738 244.769 186.19 245.429 185.789C246.09 185.387 246.85 185.187 247.711 185.187C248.431 185.187 249.068 185.334 249.622 185.629C250.176 185.924 250.601 186.337 250.896 186.868V181.525H252.382V194.263H251.037L250.914 192.812C250.725 193.095 250.483 193.366 250.188 193.626C249.893 193.873 249.54 194.08 249.127 194.245C248.714 194.398 248.236 194.475 247.694 194.475ZM247.853 193.184C248.443 193.184 248.962 193.048 249.41 192.777C249.87 192.494 250.224 192.104 250.471 191.609C250.719 191.102 250.843 190.512 250.843 189.84C250.843 189.168 250.719 188.584 250.471 188.088C250.224 187.581 249.87 187.186 249.41 186.903C248.962 186.62 248.443 186.478 247.853 186.478C247.287 186.478 246.774 186.62 246.314 186.903C245.866 187.186 245.512 187.581 245.252 188.088C245.005 188.584 244.881 189.168 244.881 189.84C244.881 190.512 245.005 191.102 245.252 191.609C245.512 192.104 245.866 192.494 246.314 192.777C246.774 193.048 247.287 193.184 247.853 193.184ZM263.042 194.263C262.511 194.263 262.051 194.18 261.662 194.015C261.273 193.85 260.972 193.573 260.76 193.184C260.559 192.783 260.459 192.246 260.459 191.574V186.655H258.92V185.399H260.459L260.654 183.259H261.945V185.399H264.528V186.655H261.945V191.574C261.945 192.128 262.057 192.505 262.281 192.706C262.505 192.895 262.901 192.989 263.467 192.989H264.404V194.263H263.042ZM270.189 194.475C269.363 194.475 268.62 194.286 267.96 193.909C267.299 193.52 266.775 192.977 266.385 192.281C266.008 191.585 265.819 190.772 265.819 189.84C265.819 188.896 266.014 188.077 266.403 187.381C266.792 186.685 267.317 186.148 267.978 185.771C268.65 185.382 269.399 185.187 270.224 185.187C271.062 185.187 271.811 185.382 272.471 185.771C273.132 186.148 273.651 186.685 274.028 187.381C274.405 188.077 274.594 188.896 274.594 189.84C274.594 190.772 274.4 191.585 274.01 192.281C273.633 192.977 273.108 193.52 272.436 193.909C271.775 194.286 271.026 194.475 270.189 194.475ZM270.189 193.201C270.708 193.201 271.186 193.077 271.622 192.83C272.058 192.582 272.406 192.205 272.666 191.697C272.937 191.19 273.073 190.571 273.073 189.84C273.073 189.085 272.943 188.46 272.683 187.965C272.424 187.469 272.076 187.098 271.64 186.85C271.203 186.591 270.732 186.461 270.224 186.461C269.729 186.461 269.257 186.591 268.809 186.85C268.373 187.098 268.019 187.469 267.748 187.965C267.476 188.46 267.341 189.085 267.341 189.84C267.341 190.571 267.476 191.19 267.748 191.697C268.019 192.205 268.367 192.582 268.791 192.83C269.228 193.077 269.694 193.201 270.189 193.201ZM281.377 194.263V181.525H282.863V194.263H281.377ZM289.314 194.475C288.489 194.475 287.746 194.286 287.085 193.909C286.425 193.52 285.9 192.977 285.511 192.281C285.133 191.585 284.945 190.772 284.945 189.84C284.945 188.896 285.139 188.077 285.528 187.381C285.918 186.685 286.442 186.148 287.103 185.771C287.775 185.382 288.524 185.187 289.35 185.187C290.187 185.187 290.936 185.382 291.597 185.771C292.257 186.148 292.776 186.685 293.153 187.381C293.531 188.077 293.72 188.896 293.72 189.84C293.72 190.772 293.525 191.585 293.136 192.281C292.758 192.977 292.233 193.52 291.561 193.909C290.901 194.286 290.152 194.475 289.314 194.475ZM289.314 193.201C289.833 193.201 290.311 193.077 290.747 192.83C291.184 192.582 291.532 192.205 291.791 191.697C292.062 191.19 292.198 190.571 292.198 189.84C292.198 189.085 292.068 188.46 291.809 187.965C291.549 187.469 291.201 187.098 290.765 186.85C290.329 186.591 289.857 186.461 289.35 186.461C288.854 186.461 288.383 186.591 287.934 186.85C287.498 187.098 287.144 187.469 286.873 187.965C286.602 188.46 286.466 189.085 286.466 189.84C286.466 190.571 286.602 191.19 286.873 191.697C287.144 192.205 287.492 192.582 287.917 192.83C288.353 193.077 288.819 193.201 289.314 193.201ZM298.944 198.367C298.142 198.367 297.434 198.261 296.821 198.049C296.207 197.848 295.724 197.536 295.37 197.111C295.028 196.686 294.857 196.162 294.857 195.536C294.857 195.277 294.91 194.994 295.016 194.687C295.134 194.381 295.329 194.08 295.6 193.785C295.883 193.49 296.278 193.225 296.785 192.989L297.811 193.59C297.198 193.85 296.791 194.145 296.591 194.475C296.402 194.805 296.308 195.112 296.308 195.395C296.308 195.784 296.42 196.109 296.644 196.368C296.88 196.627 297.192 196.822 297.581 196.952C297.982 197.082 298.436 197.146 298.944 197.146C299.439 197.146 299.869 197.07 300.235 196.916C300.601 196.775 300.884 196.574 301.084 196.315C301.285 196.055 301.385 195.755 301.385 195.413C301.385 195.012 301.232 194.67 300.925 194.387C300.63 194.115 300.052 193.956 299.191 193.909C298.495 193.862 297.912 193.797 297.44 193.714C296.98 193.632 296.591 193.537 296.272 193.431C295.966 193.313 295.706 193.184 295.494 193.042C295.293 192.9 295.11 192.753 294.945 192.6V192.193L296.679 190.477L297.953 190.937L296.184 192.547L296.414 191.927C296.543 192.022 296.667 192.11 296.785 192.193C296.903 192.275 297.062 192.346 297.263 192.405C297.475 192.464 297.758 192.517 298.112 192.564C298.466 192.611 298.938 192.659 299.527 192.706C300.329 192.765 300.972 192.906 301.456 193.13C301.951 193.355 302.305 193.655 302.517 194.033C302.741 194.41 302.853 194.852 302.853 195.36C302.853 195.855 302.712 196.333 302.429 196.793C302.158 197.253 301.733 197.63 301.155 197.925C300.577 198.22 299.84 198.367 298.944 198.367ZM298.926 191.485C298.183 191.485 297.546 191.344 297.015 191.061C296.496 190.777 296.101 190.4 295.83 189.928C295.559 189.457 295.423 188.926 295.423 188.336C295.423 187.746 295.559 187.222 295.83 186.762C296.113 186.29 296.514 185.912 297.033 185.629C297.552 185.334 298.183 185.187 298.926 185.187C299.669 185.187 300.3 185.334 300.819 185.629C301.338 185.912 301.733 186.29 302.004 186.762C302.275 187.222 302.411 187.746 302.411 188.336C302.411 188.926 302.275 189.457 302.004 189.928C301.733 190.4 301.338 190.777 300.819 191.061C300.3 191.344 299.669 191.485 298.926 191.485ZM298.926 190.264C299.551 190.264 300.046 190.099 300.412 189.769C300.789 189.439 300.978 188.961 300.978 188.336C300.978 187.723 300.789 187.251 300.412 186.921C300.046 186.591 299.551 186.425 298.926 186.425C298.301 186.425 297.794 186.591 297.404 186.921C297.027 187.251 296.838 187.723 296.838 188.336C296.838 188.961 297.027 189.439 297.404 189.769C297.782 190.099 298.289 190.264 298.926 190.264ZM300.359 186.655L299.917 185.399H303.561V186.514L300.359 186.655ZM305.413 194.263V185.399H306.899V194.263H305.413ZM306.156 183.489C305.861 183.489 305.613 183.394 305.413 183.206C305.224 183.005 305.13 182.757 305.13 182.463C305.13 182.168 305.224 181.932 305.413 181.755C305.613 181.566 305.861 181.472 306.156 181.472C306.439 181.472 306.681 181.566 306.881 181.755C307.082 181.932 307.182 182.168 307.182 182.463C307.182 182.757 307.082 183.005 306.881 183.206C306.681 183.394 306.439 183.489 306.156 183.489ZM309.486 194.263V185.399H310.831L310.919 186.956C311.202 186.414 311.609 185.983 312.14 185.665C312.671 185.346 313.272 185.187 313.945 185.187C314.629 185.187 315.224 185.329 315.731 185.612C316.239 185.883 316.634 186.302 316.917 186.868C317.2 187.434 317.341 188.147 317.341 189.008V194.263H315.855V189.168C315.855 188.271 315.661 187.599 315.271 187.151C314.882 186.691 314.328 186.461 313.608 186.461C313.101 186.461 312.647 186.585 312.246 186.832C311.857 187.068 311.544 187.416 311.309 187.876C311.084 188.336 310.972 188.902 310.972 189.574V194.263H309.486Z" fill="#6B7280"/>
<rect x="50.6426" y="226.8" width="331.714" height="55.2857" rx="8.84571" fill="#3390D5"/>
<path d="M180.339 260.531V248.147H184.992C185.995 248.147 186.82 248.318 187.469 248.66C188.129 248.991 188.619 249.451 188.937 250.04C189.268 250.618 189.433 251.273 189.433 252.004C189.433 252.688 189.273 253.319 188.955 253.897C188.648 254.475 188.165 254.947 187.504 255.312C186.856 255.666 186.018 255.843 184.992 255.843H182.728V260.531H180.339ZM182.728 253.915H184.833C185.6 253.915 186.148 253.744 186.478 253.402C186.82 253.048 186.991 252.582 186.991 252.004C186.991 251.402 186.82 250.937 186.478 250.606C186.148 250.264 185.6 250.093 184.833 250.093H182.728V253.915ZM191.154 260.531V251.668H193.277L193.489 253.313C193.713 252.936 193.984 252.611 194.303 252.34C194.621 252.057 194.987 251.839 195.4 251.686C195.812 251.532 196.272 251.456 196.78 251.456V253.985H196.019C195.653 253.985 195.317 254.027 195.01 254.109C194.716 254.192 194.456 254.327 194.232 254.516C194.008 254.693 193.837 254.947 193.719 255.277C193.601 255.595 193.542 255.996 193.542 256.48V260.531H191.154ZM202.413 260.744C201.564 260.744 200.797 260.549 200.113 260.16C199.441 259.759 198.904 259.21 198.503 258.514C198.114 257.819 197.92 257.017 197.92 256.108C197.92 255.188 198.114 254.381 198.503 253.685C198.904 252.989 199.447 252.446 200.131 252.057C200.815 251.656 201.582 251.456 202.431 251.456C203.292 251.456 204.059 251.656 204.731 252.057C205.415 252.446 205.951 252.989 206.341 253.685C206.742 254.381 206.942 255.188 206.942 256.108C206.942 257.017 206.742 257.819 206.341 258.514C205.94 259.21 205.397 259.759 204.713 260.16C204.041 260.549 203.274 260.744 202.413 260.744ZM202.413 258.674C202.802 258.674 203.15 258.579 203.457 258.391C203.775 258.202 204.029 257.919 204.218 257.541C204.406 257.152 204.501 256.675 204.501 256.108C204.501 255.53 204.406 255.053 204.218 254.675C204.041 254.286 203.793 253.997 203.475 253.809C203.168 253.62 202.82 253.525 202.431 253.525C202.053 253.525 201.706 253.62 201.387 253.809C201.069 253.997 200.815 254.286 200.626 254.675C200.438 255.053 200.343 255.53 200.343 256.108C200.343 256.675 200.438 257.152 200.626 257.541C200.815 257.919 201.063 258.202 201.369 258.391C201.688 258.579 202.036 258.674 202.413 258.674ZM213.3 260.744C212.404 260.744 211.608 260.549 210.912 260.16C210.216 259.759 209.673 259.21 209.284 258.514C208.895 257.819 208.7 257.022 208.7 256.126C208.7 255.206 208.895 254.398 209.284 253.702C209.673 253.006 210.216 252.458 210.912 252.057C211.608 251.656 212.404 251.456 213.3 251.456C214.444 251.456 215.399 251.756 216.166 252.358C216.945 252.948 217.44 253.767 217.652 254.817H215.122C215.016 254.404 214.798 254.086 214.468 253.862C214.137 253.626 213.742 253.508 213.282 253.508C212.87 253.508 212.498 253.614 212.168 253.826C211.849 254.027 211.596 254.322 211.407 254.711C211.218 255.1 211.124 255.566 211.124 256.108C211.124 256.509 211.177 256.869 211.283 257.188C211.401 257.506 211.555 257.783 211.743 258.019C211.932 258.243 212.156 258.414 212.415 258.532C212.687 258.65 212.976 258.709 213.282 258.709C213.589 258.709 213.866 258.662 214.114 258.568C214.362 258.461 214.574 258.308 214.751 258.108C214.928 257.907 215.052 257.665 215.122 257.382H217.652C217.44 258.408 216.945 259.228 216.166 259.841C215.388 260.443 214.432 260.744 213.3 260.744ZM223.994 260.744C223.097 260.744 222.301 260.555 221.605 260.177C220.921 259.788 220.385 259.252 219.995 258.568C219.618 257.883 219.429 257.087 219.429 256.179C219.429 255.259 219.618 254.445 219.995 253.738C220.373 253.03 220.903 252.476 221.588 252.075C222.283 251.662 223.085 251.456 223.994 251.456C224.878 251.456 225.651 251.65 226.311 252.039C226.972 252.417 227.485 252.936 227.85 253.596C228.228 254.257 228.416 255.006 228.416 255.843C228.416 255.961 228.416 256.091 228.416 256.232C228.416 256.374 228.405 256.527 228.381 256.692H221.128V255.224H225.993C225.969 254.669 225.769 254.227 225.391 253.897C225.026 253.555 224.566 253.384 224.011 253.384C223.598 253.384 223.221 253.478 222.879 253.667C222.537 253.856 222.266 254.139 222.065 254.516C221.876 254.882 221.782 255.348 221.782 255.914V256.427C221.782 256.91 221.871 257.329 222.048 257.683C222.236 258.037 222.496 258.314 222.826 258.514C223.168 258.703 223.551 258.797 223.976 258.797C224.412 258.797 224.772 258.703 225.055 258.514C225.35 258.326 225.574 258.078 225.727 257.771H228.169C228.004 258.326 227.721 258.827 227.32 259.275C226.93 259.723 226.453 260.083 225.887 260.354C225.332 260.614 224.701 260.744 223.994 260.744ZM234.636 260.744C233.74 260.744 232.944 260.555 232.248 260.177C231.564 259.788 231.027 259.252 230.638 258.568C230.26 257.883 230.072 257.087 230.072 256.179C230.072 255.259 230.26 254.445 230.638 253.738C231.015 253.03 231.546 252.476 232.23 252.075C232.926 251.662 233.728 251.456 234.636 251.456C235.521 251.456 236.293 251.65 236.954 252.039C237.614 252.417 238.127 252.936 238.493 253.596C238.87 254.257 239.059 255.006 239.059 255.843C239.059 255.961 239.059 256.091 239.059 256.232C239.059 256.374 239.047 256.527 239.024 256.692H231.77V255.224H236.635C236.612 254.669 236.411 254.227 236.034 253.897C235.668 253.555 235.208 253.384 234.654 253.384C234.241 253.384 233.864 253.478 233.522 253.667C233.179 253.856 232.908 254.139 232.708 254.516C232.519 254.882 232.425 255.348 232.425 255.914V256.427C232.425 256.91 232.513 257.329 232.69 257.683C232.879 258.037 233.138 258.314 233.468 258.514C233.81 258.703 234.194 258.797 234.618 258.797C235.055 258.797 235.414 258.703 235.698 258.514C235.992 258.326 236.217 258.078 236.37 257.771H238.811C238.646 258.326 238.363 258.827 237.962 259.275C237.573 259.723 237.095 260.083 236.529 260.354C235.975 260.614 235.344 260.744 234.636 260.744ZM244.978 260.744C244.164 260.744 243.433 260.543 242.784 260.142C242.147 259.741 241.64 259.193 241.263 258.497C240.897 257.789 240.714 256.993 240.714 256.108C240.714 255.212 240.897 254.416 241.263 253.72C241.64 253.012 242.153 252.458 242.802 252.057C243.462 251.656 244.199 251.456 245.013 251.456C245.662 251.456 246.228 251.573 246.712 251.809C247.195 252.045 247.584 252.381 247.879 252.818V247.793H250.268V260.531H248.145L247.879 259.311C247.691 259.558 247.466 259.794 247.207 260.018C246.947 260.242 246.635 260.419 246.269 260.549C245.904 260.679 245.473 260.744 244.978 260.744ZM245.526 258.656C246.01 258.656 246.429 258.55 246.782 258.338C247.148 258.113 247.431 257.813 247.632 257.435C247.832 257.046 247.932 256.598 247.932 256.091C247.932 255.595 247.832 255.153 247.632 254.764C247.431 254.375 247.148 254.074 246.782 253.862C246.417 253.649 245.998 253.543 245.526 253.543C245.078 253.543 244.671 253.655 244.306 253.879C243.94 254.092 243.651 254.392 243.439 254.782C243.238 255.159 243.138 255.595 243.138 256.091C243.138 256.586 243.238 257.028 243.439 257.418C243.651 257.807 243.94 258.113 244.306 258.338C244.671 258.55 245.078 258.656 245.526 258.656Z" fill="white"/>
</g>
<defs>
<filter id="filter0_dd_6579_19335" x="0.885715" y="0" width="431.229" height="352.852" filterUnits="userSpaceOnUse" color-interpolation-filters="sRGB">
<feFlood flood-opacity="0" result="BackgroundImageFix"/>
<feColorMatrix in="SourceAlpha" type="matrix" values="0 0 0 0 0 0 0 0 0 0 0 0 0 0 0 0 0 0 127 0" result="hardAlpha"/>
<feMorphology radius="6.63429" operator="erode" in="SourceAlpha" result="effect1_dropShadow_6579_19335"/>
<feOffset dy="8.84571"/>
<feGaussianBlur stdDeviation="5.52857"/>
<feColorMatrix type="matrix" values="0 0 0 0 0.0627451 0 0 0 0 0.0941176 0 0 0 0 0.156863 0 0 0 0.1 0"/>
<feBlend mode="normal" in2="BackgroundImageFix" result="effect1_dropShadow_6579_19335"/>
<feColorMatrix in="SourceAlpha" type="matrix" values="0 0 0 0 0 0 0 0 0 0 0 0 0 0 0 0 0 0 127 0" result="hardAlpha"/>
<feMorphology radius="5.52857" operator="erode" in="SourceAlpha" result="effect2_dropShadow_6579_19335"/>
<feOffset dy="22.1143"/>
<feGaussianBlur stdDeviation="13.8214"/>
<feColorMatrix type="matrix" values="0 0 0 0 0.0627451 0 0 0 0 0.0941176 0 0 0 0 0.156863 0 0 0 0.1 0"/>
<feBlend mode="normal" in2="effect1_dropShadow_6579_19335" result="effect2_dropShadow_6579_19335"/>
<feBlend mode="normal" in="SourceGraphic" in2="effect2_dropShadow_6579_19335" result="shape"/>
</filter>
</defs>
</svg>
